<?xml version="1.0" encoding="utf-8"?>
<!-- Generator: Adobe Illustrator 15.1.0, SVG Export Plug-In . SVG Version: 6.00 Build 0)  -->
<!DOCTYPE svg PUBLIC "-//W3C//DTD SVG 1.1//EN" "http://www.w3.org/Graphics/SVG/1.1/DTD/svg11.dtd">
<svg version="1.1" id="Layer_2" xmlns="http://www.w3.org/2000/svg" xmlns:xlink="http://www.w3.org/1999/xlink" x="0px" y="0px"
	 width="199.975px" height="66.991px" viewBox="0 0 199.975 66.991" enable-background="new 0 0 199.975 66.991"
	 xml:space="preserve">
<circle fill="#FFFFFF" cx="33.125" cy="31.125" r="25.875"/>
<g>
	<path d="M72.904,21.889h7.439c1.473,0,2.571,0.062,3.294,0.184s1.371,0.379,1.942,0.768s1.047,0.908,1.428,1.555
		s0.571,1.373,0.571,2.177c0,0.872-0.235,1.671-0.705,2.399s-1.106,1.274-1.911,1.638c1.134,0.33,2.006,0.893,2.615,1.688
		c0.609,0.795,0.914,1.73,0.914,2.806c0,0.847-0.197,1.669-0.59,2.47c-0.394,0.799-0.931,1.438-1.612,1.916
		c-0.681,0.479-1.521,0.773-2.52,0.883c-0.626,0.068-2.137,0.109-4.532,0.127h-6.335V21.889z M76.662,24.986v4.304h2.463
		c1.464,0,2.374-0.021,2.729-0.063c0.643-0.076,1.149-0.298,1.517-0.667s0.552-0.853,0.552-1.454c0-0.576-0.159-1.043-0.476-1.403
		s-0.789-0.578-1.416-0.654c-0.373-0.042-1.443-0.063-3.212-0.063H76.662z M76.662,32.388v4.977h3.479
		c1.354,0,2.213-0.038,2.577-0.114c0.559-0.102,1.014-0.35,1.365-0.742c0.351-0.395,0.527-0.921,0.527-1.581
		c0-0.559-0.135-1.032-0.406-1.422s-0.662-0.673-1.174-0.851s-1.623-0.267-3.333-0.267H76.662z"/>
	<path d="M97.56,40.5V21.889h3.758V40.5H97.56z"/>
	<path d="M119.562,33.657v-3.136h8.1v7.414c-0.787,0.762-1.928,1.433-3.421,2.012c-1.494,0.58-3.007,0.87-4.539,0.87
		c-1.946,0-3.644-0.408-5.091-1.226c-1.447-0.816-2.535-1.984-3.263-3.504c-0.728-1.519-1.092-3.171-1.092-4.957
		c0-1.938,0.406-3.661,1.219-5.167s2.002-2.662,3.567-3.466c1.193-0.618,2.679-0.927,4.456-0.927c2.311,0,4.115,0.484,5.414,1.454
		c1.3,0.969,2.136,2.309,2.508,4.018l-3.732,0.698c-0.263-0.914-0.756-1.636-1.479-2.165c-0.725-0.529-1.628-0.793-2.711-0.793
		c-1.642,0-2.947,0.521-3.916,1.562c-0.97,1.041-1.454,2.585-1.454,4.634c0,2.209,0.491,3.865,1.473,4.971
		c0.981,1.104,2.269,1.656,3.859,1.656c0.787,0,1.576-0.154,2.368-0.463c0.791-0.31,1.47-0.684,2.037-1.124v-2.361H119.562z"/>
	<path d="M137.158,40.5V21.889h12.759v3.148h-9.001v4.405h7.77v3.148h-7.77V40.5H137.158z"/>
	<path d="M158.907,40.5V21.889h3.758V40.5H158.907z"/>
	<path d="M170.359,40.5l6.36-9.712l-5.764-8.899h4.393l3.732,5.979l3.656-5.979h4.354l-5.789,9.039l6.36,9.572h-4.532l-4.126-6.437
		l-4.139,6.437H170.359z"/>
</g>
<path fill="#6F99BD" d="M33.125,5.25c-1.933,0-3.813,0.219-5.625,0.62v12.754c1.732-0.723,3.631-1.125,5.625-1.125
	c8.077,0,14.625,6.548,14.625,14.625S41.202,46.75,33.125,46.75S18.5,40.202,18.5,32.125V9.781
	C11.708,14.445,7.25,22.263,7.25,31.125C7.25,45.415,18.834,57,33.125,57S59,45.415,59,31.125C59,16.834,47.416,5.25,33.125,5.25z"
	/>
<circle fill="#ABC450" cx="33.125" cy="32.5" r="6"/>
</svg>
